<svg id="Capa_1" enable-background="new 0 0 512 512" height="512" viewBox="0 0 512 512" width="512" xmlns="http://www.w3.org/2000/svg"><g><g><path d="m376 31c-26.91 0-51.28 7.12-72.7 21.22-9.96 40.05-32.3 128.78-32.3 128.78l41.264-8.253c5.848-1.17 11.832 1.239 15.24 6.132 3.408 4.894 3.59 11.342.465 16.421l-101.969 165.7 30-135-52.029 10.406c-5.016 1.003-10.199-.621-13.744-4.309s-4.957-8.927-3.76-13.9c9.121-37.916 27.484-113.683 38.073-153.487-24.99-22.38-54.74-33.71-88.54-33.71-78.5 0-136 58.57-136 130.08 0 114.65 155.2 246.64 246.88 316.83 5.38 4.12 12.86 4.12 18.24 0 91.42-69.99 246.88-202.09 246.88-316.83 0-71.71-57.46-130.08-136-130.08z"/></g></g></svg>