<?xml version="1.0"?>
<svg xmlns="http://www.w3.org/2000/svg" xmlns:xlink="http://www.w3.org/1999/xlink" version="1.1" id="Capa_1" x="0px" y="0px" viewBox="0 0 469.333 469.333" style="enable-background:new 0 0 469.333 469.333;" xml:space="preserve" width="512px" height="512px"><g><g>
	<g>
		<path d="M405.333,106.667C393.557,106.667,384,116.245,384,128v117.333c0,5.888-4.779,10.667-10.667,10.667    s-10.667-4.779-10.667-10.667V64c0-11.755-9.557-21.333-21.333-21.333S320,52.245,320,64v181.333    c0,5.888-4.779,10.667-10.667,10.667s-10.667-4.779-10.667-10.667v-224C298.667,9.579,289.109,0,277.333,0S256,9.579,256,21.333    v224c0,5.888-4.779,10.667-10.667,10.667s-10.667-4.779-10.667-10.667V64c0-11.755-9.579-21.333-21.333-21.333    C201.579,42.667,192,52.245,192,64v210.56c0,13.397-8.107,25.152-20.629,29.909c-12.501,4.736-26.368,1.387-35.285-8.661    l-54.016-51.52C67.733,226.176,42.667,237.547,42.667,256c0,3.456,0.811,6.741,2.368,9.792l81.344,131.797    c27.307,44.949,72.704,71.744,121.493,71.744h61.461c64.683,0,117.333-52.651,117.333-117.333V128    C426.667,116.245,417.109,106.667,405.333,106.667z" data-original="#000000" class="active-path" data-old_color="#000000" fill="#F9A825"/>
	</g>
</g></g> </svg>
