<svg id="Capa_1" enable-background="new 0 0 512 512" height="512" viewBox="0 0 512 512" width="512" xmlns="http://www.w3.org/2000/svg"><g><path d="m338.648 78.55 49.305-49.304c-23.346-18.646-51.52-28.398-79.92-29.246v78.55z"/><path d="m349.302 129.872h89.16c-.963-28.204-10.705-56.154-29.224-79.341l-61.359 61.359z"/><path d="m277.931 2.457c-25.287 4.942-49.418 17.153-68.987 36.645l39.449 39.449h29.538z"/><path d="m353.567 183.723 45.816 45.816c19.64-19.718 31.891-44.068 36.759-69.566h-84.456z"/><path d="m221.007 298.716h21.596v21.596h-21.596z" transform="matrix(.707 -.707 .707 .707 -150.965 254.563)"/><path d="m161.613 181.425h21.596v21.595h-21.596z"/><path d="m297.391 367.14c24.354-26.36 36.697-61.997 33.864-97.773l-5.098-64.374h-112.846v28.128h-81.799v-28.128h-52.476l-5.098 64.374c-2.833 35.776 9.51 71.413 33.864 97.773 20.926 22.649 49.382 36.988 79.744 40.579v74.179h-89.579v30.102h209.259v-30.102h-89.578v-74.179c30.361-3.591 58.817-17.929 79.743-40.579zm-65.585-115.467 57.84 57.84-57.84 57.841-57.842-57.841z"/><path d="m86.753 107.554-5.333 67.338h50.092v-23.569h81.799v23.569h110.462l-5.333-67.338z"/></g></svg>