<svg xmlns="http://www.w3.org/2000/svg" data-name="Layer 1" viewBox="0 0 512 512"><path fill="#f66366" d="M461.55957,501.999V377.83518A80,80,0,0,0,406.687,301.88379l-86.10752-28.48743a20,20,0,0,1-13.71814-18.98785V229.13818H205.13867v25.27033a20,20,0,0,1-13.71814,18.98785L105.313,301.88379a80,80,0,0,0-54.87258,75.95139V501.999a10,10,0,0,0,10,10H451.55957A10,10,0,0,0,461.55957,501.999Z"/><path fill="#fcba63" d="M249,512V376.83057a60.001,60.001,0,0,1,18.4939-43.32764l65.467-56.00928,57.918,19.16162v.37256a173.94283,173.94283,0,0,0-2.26772,128.93291,34.87094,34.87094,0,0,1,2.26772,12.35529V512Z"/><rect x="249" y="449.65" fill="#fc7b55"/><path fill="#fc7b55" d="M249.00006,428.64551h140.5c-.2616-.9043-.5542-1.80127-.88879-2.68457a174.65729,174.65729,0,0,1-9.83387-39.31543H249.00006Z"/><path fill="#e58e41" d="M262.99957,338.32373a59.9954,59.9954,0,0,0-13.99951,38.50684V512h27.999V376.83057A59.99528,59.99528,0,0,0,262.99957,338.32373Z"/><rect width="27.999" height="42" x="249" y="449.65" fill="#ee5034"/><rect width="27.999" height="42" x="249" y="386.646" fill="#ee5034"/><path fill="#fcba63" d="M262.999,512V376.83057a60.001,60.001,0,0,0-18.49389-43.32764l-65.467-56.00928-57.918,19.16162v.37256a174.22924,174.22924,0,0,1,13.55005,67.48145,174.23694,174.23694,0,0,1-11.28234,61.45146,34.87115,34.87115,0,0,0-2.26771,12.35529V512Z"/><path fill="#fc7b55" d="M123.38782,425.96094c-.3346.8833-.6272,1.78027-.8888,2.68457h140.5v-42H133.22168A174.65465,174.65465,0,0,1,123.38782,425.96094Z"/><circle cx="234.999" cy="407.646" r="7" fill="#343c49"/><rect width="141.879" height="42" x="121.12" y="449.65" fill="#fc7b55"/><circle cx="234.999" cy="470.646" r="7" fill="#343c49"/><path fill="#f7bdad" d="M197.94556 269.75781a76.97119 76.97119 0 0 0 116.10888 0 19.99 19.99 0 0 1-7.19311-15.34912V229.13818H205.13867v25.27051A19.99 19.99 0 0 1 197.94556 269.75781zM121.12012 511.999H60.44043a10 10 0 0 1-10-10V465.85047h70.67969zM390.879 465.85047h70.67968l.00076 36.14842a10 10 0 0 1-10 10.00013h-60.6805z"/><path fill="#e2897d" d="M329.18106,150.80806h0V109.75838h5.7301a17.65977,17.65977,0,0,1,17.65977,17.65973v0A23.38984,23.38984,0,0,1,329.18106,150.80806Z"/><path fill="#e2897d" d="M159.04643,109.75838h.00008a23.38985,23.38985,0,0,1,23.38985,23.38985v.00006a17.65977,17.65977,0,0,1-17.65977,17.65977h-5.73016a0,0,0,0,1,0,0V109.75838A0,0,0,0,1,159.04643,109.75838Z" transform="rotate(180 170.741 130.283)"/><path fill="#e2897d" d="M205.13867,229.13818v7.63233a67.30046,67.30046,0,0,0,19.51709,21.91308l9.20716,6.61963a61.90237,61.90237,0,0,0,36.137,11.64307h.00006a61.90246,61.90246,0,0,0,36.137-11.64307l2.81269-2.022a19.90584,19.90584,0,0,1-2.08832-8.87256V229.13818Z"/><path fill="#f7bdad" d="M329.37237,163.60207V183.0104a67.33774,67.33774,0,0,1-28.02789,54.67273l-9.20752,6.62024a61.90273,61.90273,0,0,1-36.137,11.64279h0a61.9027,61.9027,0,0,1-36.137-11.64275l-9.20723-6.62a67.33778,67.33778,0,0,1-28.02795-54.67258l0-19.40875V106.49474l146.74468-4.43587Z"/><path fill="#343c49" d="M290.1381,207.72581,266.114,203.5216a58.67247,58.67247,0,0,0-20.22808,0l-24.02406,4.20421A5,5,0,0,1,216,202.80065v-10.848a5,5,0,0,1,4.1381-4.92515L245.886,182.5216a58.67247,58.67247,0,0,1,20.22808,0l25.74786,4.50587A5,5,0,0,1,296,191.95262v10.848A5,5,0,0,1,290.1381,207.72581Z"/><path fill="#e2897d" d="M268.70447,171.28509v4.707a12.7012,12.7012,0,0,1-12.7012,12.70119h-.00648a12.7012,12.7012,0,0,1-12.7012-12.70119v-4.707a4,4,0,0,1,4-4h17.40888A4,4,0,0,1,268.70447,171.28509Z"/><path fill="#fcba63" d="M255.99991,3.499h.00017A85.60293,85.60293,0,0,1,341.603,89.102V98.071a0,0,0,0,1,0,0H170.397a0,0,0,0,1,0,0V89.102A85.60293,85.60293,0,0,1,255.99991,3.499Z"/><path fill="#cce3fd" d="M324.92177,149.402,280.8987,161.16934a7,7,0,0,1-6.75778-1.81323l-13.89825-13.90046a6,6,0,0,0-8.48562-.00033l-13.90123,13.90123a7,7,0,0,1-6.75749,1.8128L187.0782,149.402a6,6,0,0,1-4.45051-5.79648v-32.771H329.37237v32.7709A6,6,0,0,1,324.92177,149.402Z"/><rect width="183" height="21" x="164.5" y="89.835" fill="#e58e41" rx="4"/></svg>