<svg xmlns="http://www.w3.org/2000/svg" data-name="Layer 1" viewBox="0 0 512 512"><path fill="#343c4a" d="M381.72132,298.1646,256,348.499,130.27868,298.1646a7.41825,7.41825,0,0,1-.96105-13.3059l0,0a56.96193,56.96193,0,0,0,28.18517-54.35347l-5.2651-58.99388V128.26116A103.76214,103.76214,0,0,1,255.99989,24.499h.00021A103.76213,103.76213,0,0,1,359.76223,128.26116v43.25021l-5.26509,58.99384a56.96193,56.96193,0,0,0,28.18518,54.35346l0,0A7.41825,7.41825,0,0,1,381.72132,298.1646Z"/><path fill="#f9f7f8" d="M447.55951,501.999V397.30246a60,60,0,0,0-33.65575-53.90714l-102.824-50.24975a20,20,0,0,1-11.21858-17.96905V241.13818H212.13879v34.03834a20,20,0,0,1-11.21858,17.96905l-102.824,50.24975a60,60,0,0,0-33.65575,53.90714V501.999a10,10,0,0,0,10,10h363.119A10,10,0,0,0,447.55951,501.999Z"/><path fill="#f9beac" d="M311.0798,293.14551a20,20,0,0,1-11.21859-17.96875V241.13818H212.13879v34.03858a20,20,0,0,1-11.21859,17.96875c.13812,3.48047,1.30206,24.13867,18.75717,39.10986A55.0049,55.0049,0,0,0,256,345.18262c1.38663.30127,25.7944,5.15527,43.09915-12.92725C314.43326,316.23193,311.45932,295.50146,311.0798,293.14551Z"/><path fill="#e58a7b" d="M299.86121,275.17676V241.13818H212.13879v34.03858a19.99715,19.99715,0,0,1-.45068,4.22265A80.03852,80.03852,0,0,0,262.99994,297.915h.00012a79.97193,79.97193,0,0,0,40.64081-11.04053A19.98688,19.98688,0,0,1,299.86121,275.17676Z"/><path fill="#f9beac" d="M175.62763,196.54278V133.60986a7.00686,7.00686,0,0,1,7.13527-6.99794,199.07178,199.07178,0,0,0,60.51314-8.40977A198.84694,198.84694,0,0,0,291.88917,96.057a5.98547,5.98547,0,0,1,8.07405,1.63846,81.38524,81.38524,0,0,0,32.34339,26.926,6.99618,6.99618,0,0,1,4.06576,6.35253v65.56879A80.37228,80.37228,0,0,1,256.00008,276.915h-.00017A80.37229,80.37229,0,0,1,175.62763,196.54278Z"/><path fill="#e58a7b" d="M256.001 241.625a36.91933 36.91933 0 0 1-15.71973-3.53711 3.49987 3.49987 0 0 1 2.99805-6.32519 29.88306 29.88306 0 0 0 12.72119 2.8623h.08984a29.90713 29.90713 0 0 0 12.63086-2.86279 3.5001 3.5001 0 1 1 2.99707 6.32617 36.955 36.955 0 0 1-15.60644 3.53662zM268.70444 196.92489v5.65663a12.7012 12.7012 0 0 1-12.7012 12.70119h-.00648a12.7012 12.7012 0 0 1-12.7012-12.70119v-5.65663a2 2 0 0 1 2-2h21.40888A2 2 0 0 1 268.70444 196.92489z"/><circle cx="256" cy="137.999" r="3.5" fill="#d34342"/><path fill="#f9f7f8" d="M352.363,74.17723a5.99256,5.99256,0,0,1-6.735,4.24531,552.24924,552.24924,0,0,0-180.63959.12571,5.99217,5.99217,0,0,1-6.78791-4.40772q-6.01266-23.14169-12.02535-46.28309A9.99467,9.99467,0,0,1,153.5128,15.618a440.61253,440.61253,0,0,1,204.94394-.07458,10.00276,10.00276,0,0,1,7.29271,12.51975Q359.0562,51.12027,352.363,74.17723Z"/><path fill="#f96263" d="M269.5,29.999H263v-6.5a7,7,0,1,0-14,0v6.5h-6.5a7,7,0,0,0,0,14H249v6.5a7,7,0,0,0,14,0v-6.5h6.5a7,7,0,0,0,0-14Z"/><path fill="#eaeaea" d="M310.39956 287.165a4.99734 4.99734 0 0 0-8.0612 3.64711 59.26294 59.26294 0 0 1-8.36308 27.12159C281.33133 338.83991 260.099 344.2269 256 345.18275l62.80542 25.5699a7 7 0 0 0 7.20124-1.17377l.02089-.018a46.24431 46.24431 0 0 0-1.71457-71.55577zM201.60044 287.165a4.99734 4.99734 0 0 1 8.0612 3.64711 59.26294 59.26294 0 0 0 8.36308 27.12159C230.66867 338.83991 251.901 344.2269 256 345.18275l-62.80542 25.5699a7 7 0 0 1-7.20124-1.17377l-.02089-.018a46.24431 46.24431 0 0 1 1.71457-71.55577z"/><circle cx="256" cy="441.499" r="9" fill="#343c4a"/><circle cx="256" cy="383.499" r="9" fill="#343c4a"/><circle cx="256" cy="499.499" r="9" fill="#343c4a"/><path fill="#e58a7b" d="M336.37238,192.42068h0V151.371H352.7622a7,7,0,0,1,7,7l0,10.65978A23.38985,23.38985,0,0,1,336.37238,192.42068Z"/><path fill="#e58a7b" d="M152.23775,151.371h.00008a23.38985,23.38985,0,0,1,23.38985,23.38985v10.65983a7,7,0,0,1-7,7H152.23775a0,0,0,0,1,0,0V151.371A0,0,0,0,1,152.23775,151.371Z" transform="rotate(180 163.933 171.896)"/><path fill="#343c4a" d="M279.187 154.46a3.50062 3.50062 0 0 1-1.33056-6.73877 34.205 34.205 0 0 1 26.01757-.00049 3.49987 3.49987 0 0 1-2.65527 6.47657 27.55335 27.55335 0 0 0-11.04248-2.0376 27.14613 27.14613 0 0 0-9.66162 2.03711A3.48766 3.48766 0 0 1 279.187 154.46zM290.86621 172.167a3.49986 3.49986 0 0 1-3.5-3.5v-7.4331a3.5 3.5 0 1 1 7 0v7.4331A3.49985 3.49985 0 0 1 290.86621 172.167zM232.813 154.46a3.489 3.489 0 0 1-1.32617-.26269 27.49323 27.49323 0 0 0-11.043-2.0376 27.13911 27.13911 0 0 0-9.66114 2.03711 3.5 3.5 0 0 1-2.6582-6.47559 34.20489 34.20489 0 0 1 26.01758-.00049A3.50059 3.50059 0 0 1 232.813 154.46zM221.13379 172.167a3.49985 3.49985 0 0 1-3.5-3.5v-7.4331a3.5 3.5 0 0 1 7 0v7.4331A3.49986 3.49986 0 0 1 221.13379 172.167z"/><path fill="#eaeaea" d="M389.73438 512a3.50272 3.50272 0 0 1-3.30713-4.64648 97.27479 97.27479 0 0 0 .64648-61.36817l-2.27-7.03076a63.842 63.842 0 0 1-3.08935-19.60547v-18.1499a3.5 3.5 0 0 1 7 0v18.1499a56.85209 56.85209 0 0 0 2.75146 17.45654l2.269 7.02784a104.316 104.316 0 0 1-.69336 65.811A3.50115 3.50115 0 0 1 389.73438 512zM122.27441 512a3.50145 3.50145 0 0 1-3.30664-2.354 104.25374 104.25374 0 0 1-.7041-65.813l2.27-7.02979a56.83444 56.83444 0 0 0 2.751-17.4541v-18.1499a3.5 3.5 0 1 1 7 0v18.1499a63.84461 63.84461 0 0 1-3.08887 19.60352l-2.271 7.03222a97.21012 97.21012 0 0 0 .65625 61.36719A3.50269 3.50269 0 0 1 122.27441 512z"/></svg>