<svg xmlns="http://www.w3.org/2000/svg" data-name="Layer 1" viewBox="0 0 512 512"><path fill="#57aafe" d="M64.44049,501.999V358.70152a80,80,0,0,1,43.484-71.17993L187.946,246.46978a80,80,0,0,1,36.516-8.82007h63.076a80,80,0,0,1,36.516,8.82007l80.02152,41.05181a80,80,0,0,1,43.484,71.17993V501.999a10,10,0,0,1-10,10H74.44049A10,10,0,0,1,64.44049,501.999Z"/><path fill="#416bd0" d="M142.12012 511.999a3.50017 3.50017 0 0 1-3.5-3.5V435.3252a3.5 3.5 0 0 1 7 0V508.499A3.50017 3.50017 0 0 1 142.12012 511.999zM373.12012 511.999a3.50017 3.50017 0 0 1-3.5-3.5V435.3252a3.5 3.5 0 0 1 7 0V508.499A3.50017 3.50017 0 0 1 373.12012 511.999z"/><polygon fill="#f9beac" points="306.245 273.36 256.001 311.879 205.202 273.36 205.202 205.797 306.245 205.797 306.245 273.36"/><path fill="#e58a7b" fill-rule="evenodd" d="M306.24463,205.79736h-4.40869a19.05822,19.05822,0,0,1-16.29346,0h-60.041a19.05991,19.05991,0,0,1-16.28955,0h-4.01v40.50391a61.40959,61.40959,0,0,0,18.15821,11.32764l31.33716,12.61084a5.99814,5.99814,0,0,0,4.48,0l31.33642-12.61133a61.46149,61.46149,0,0,0,15.731-9.24756Z"/><path fill="#f2f2f2" d="M483.72529,352.74569l-31.22267,54.07924a13.49113,13.49113,0,0,1-11.74374,6.74543l-31.28927-.13932a14.93022,14.93022,0,0,0-12.99643,7.465l-45.19869,78.28643a18.627,18.627,0,0,1-25.44491,6.81794l0,0a18.627,18.627,0,0,1-6.81794-25.44491l49.53086-85.79,32.69671-56.63236a28.58819,28.58819,0,0,1,39.0522-10.464Z"/><path fill="#adb9d6" d="M428.12313,361.08249H463.4938a4,4,0,0,1,4,4V386.087a4,4,0,0,1-4,4H428.12313a0,0,0,0,1,0,0V361.08249A0,0,0,0,1,428.12313,361.08249Z" transform="rotate(-150 447.808 375.585)"/><path fill="#adb9d6" d="M505.04876,315.81235l-21.32347,36.93334-25.11874-14.50231,17.56864-30.42977a4.23341,4.23341,0,0,0-1.54954-5.78294L447.079,286.12658a3.95832,3.95832,0,0,1-1.44885-5.40717v0a25.04627,25.04627,0,0,1,34.21385-9.16757l15.78755,9.11494A25.72836,25.72836,0,0,1,505.04876,315.81235Z"/><polygon fill="#dbe6fc" points="270.411 511.999 270.411 316.969 270.411 296.709 256.001 311.879 241.591 296.709 241.591 316.969 241.591 511.999 270.411 511.999"/><path fill="#dbe6fc" d="M255.99994,311.883l47.3432-29.27484a8.6508,8.6508,0,0,1,10.57909,1.02089l12.39265,10.82851a4,4,0,0,0,6.58817-3.60226l-6.35334-42.59245a15.1022,15.1022,0,0,0-4.10446-8.55839l-7.649-7.49818c-4.76663-4.67264-11.531-3.39131-15.08667,2.85779Z"/><path fill="#dbe6fc" d="M256.00006,311.883l-47.3432-29.27484a8.6508,8.6508,0,0,0-10.57909,1.02089l-12.39265,10.82851a4,4,0,0,1-6.58817-3.60226l6.35334-42.59245a15.1022,15.1022,0,0,1,4.10446-8.55839l7.649-7.49818c4.76663-4.67264,11.53095-3.39131,15.08667,2.85779Z"/><circle cx="256.001" cy="341.05" r="4.184" fill="#343c4a"/><circle cx="256.001" cy="382.886" r="4.184" fill="#343c4a"/><circle cx="256.001" cy="424.722" r="4.184" fill="#343c4a"/><circle cx="256.001" cy="458.19" r="4.184" fill="#343c4a"/><circle cx="256.001" cy="493.19" r="4.184" fill="#343c4a"/><path fill="#f9beac" d="M209.49171,219.22453a64.23843,64.23843,0,0,1-24.686-50.618V102.17265a31.873,31.873,0,0,1,31.873-31.873h80.51288a31.873,31.873,0,0,1,31.873,31.873v66.43383a64.23842,64.23842,0,0,1-24.68608,50.618L283.58458,235.4726a43.2825,43.2825,0,0,1-26.64952,9.17711h0a43.28251,43.28251,0,0,1-26.64954-9.17713Z"/><path fill="#adb9d6" fill-rule="evenodd" d="M197.20361 232.20605l-2.23925 2.19532a61.4472 61.4472 0 0 0 28.39575 23.22754l2.29516.92382L212.29053 235.064C208.73462 228.81494 201.97046 227.53369 197.20361 232.20605zM290.51367 257.62842a61.44335 61.44335 0 0 0 27.64966-22.12158l-3.36694-3.30079c-4.76685-4.67236-11.531-3.39111-15.08692 2.85791l-13.9209 24.46631z"/><path fill="#343c4a" fill-rule="evenodd" d="M184.81,156.679l16.075,27.49963a19.093,19.093,0,0,0,25.89339,6.97773l9.67354-5.47925a14.38279,14.38279,0,0,1,7.08854-1.86811h23.96026a14.38278,14.38278,0,0,1,7.08672,1.86708l9.68274,5.4826a19.09306,19.09306,0,0,0,25.89246-6.98166l18.90188-32.34713v34.72855a61.51831,61.51831,0,0,1-38.55073,57.07006l-31.33651,12.61123a6,6,0,0,1-4.48,0L223.3601,243.62908a61.51828,61.51828,0,0,1-38.55192-57.0743Z"/><path fill="#e58a7b" d="M329.06443 161.60646h0V116.734h0a19.63032 19.63032 0 0 1 19.2995 23.219l-1.23428 6.63774A18.37489 18.37489 0 0 1 329.06443 161.60646zM184.80562 161.60646h0V116.734h0a19.63032 19.63032 0 0 0-19.29949 23.219l1.23428 6.63774A18.37489 18.37489 0 0 0 184.80562 161.60646zM256.94727 211.16455c-.30176 0-.60254-.00391-.90528-.01123A35.144 35.144 0 0 1 243.54 208.51758a3.5 3.5 0 1 1 2.6582-6.47559 28.16729 28.16729 0 0 0 10.02149 2.11328 28.70484 28.70484 0 0 0 11.4541-2.11377 3.49969 3.49969 0 1 1 2.65429 6.47657A35.0918 35.0918 0 0 1 256.94727 211.16455z"/><path fill="#343c4a" d="M300.58105 136.00537a3.48723 3.48723 0 0 1-1.32617-.26269 28.669 28.669 0 0 0-11.4541-2.11329 28.16243 28.16243 0 0 0-10.02148 2.1128 3.5 3.5 0 1 1-2.65821-6.47559 35.21937 35.21937 0 0 1 26.78809-.00049 3.50048 3.50048 0 0 1-1.32813 6.73926zM288.51562 154.29639a3.50018 3.50018 0 0 1-3.5-3.5v-7.67823a3.5 3.5 0 0 1 7 0v7.67823A3.50017 3.50017 0 0 1 288.51562 154.29639zM235.54883 136.00537a3.48723 3.48723 0 0 1-1.32617-.26269 28.641 28.641 0 0 0-11.45411-2.11329 28.16247 28.16247 0 0 0-10.02148 2.1128 3.5 3.5 0 1 1-2.6582-6.47559 35.21935 35.21935 0 0 1 26.78808-.00049 3.50047 3.50047 0 0 1-1.32812 6.73926zM223.48438 154.29639a3.50017 3.50017 0 0 1-3.5-3.5v-7.67823a3.5 3.5 0 0 1 7 0v7.67823A3.50018 3.50018 0 0 1 223.48438 154.29639z"/><path fill="#e58a7b" d="M267.90187,172.06548v5.43221A11.90186,11.90186,0,0,1,256,189.39955h0a11.90186,11.90186,0,0,1-11.90186-11.90186v-5.43221a3,3,0,0,1,3-3h17.80374A3,3,0,0,1,267.90187,172.06548Z"/><path fill="#343c4a" d="M329.10094 145.29993h-4a10 10 0 0 1-10-10v-31l14-7zM184.80564 145.29993h4a10 10 0 0 0 10-10v-38h-14z"/><path fill="#dbe6fc" d="M214.41229,3.499h85.05086A31.19093,31.19093,0,0,1,330.65407,34.69V95.17827a0,0,0,0,1,0,0H183.22136a0,0,0,0,1,0,0V34.69A31.19093,31.19093,0,0,1,214.41229,3.499Z"/><path fill="#57aafe" d="M306.58878,117.80865,277.23939,111.491a96.47387,96.47387,0,0,0-40.60346,0l-29.34928,6.31768a18.33523,18.33523,0,0,1-20.60109-10.45045l-3.861-8.64886A8.74413,8.74413,0,0,1,188.12485,86.813a225.21567,225.21567,0,0,1,70.438-10.78238c23.44709.16933,51.93842,7.081,66.608,11.1125a8.75281,8.75281,0,0,1,5.683,12.00745l-3.664,8.20762A18.33521,18.33521,0,0,1,306.58878,117.80865Z"/></svg>